<?xml version="1.0" standalone="no"?><!DOCTYPE svg PUBLIC "-//W3C//DTD SVG 1.1//EN" "http://www.w3.org/Graphics/SVG/1.1/DTD/svg11.dtd"><svg t="1542552895281" class="icon" style="" viewBox="0 0 1024 1024" version="1.1" xmlns="http://www.w3.org/2000/svg" p-id="780" xmlns:xlink="http://www.w3.org/1999/xlink" width="144" height="144"><defs><style type="text/css"></style></defs><path d="M959.232 755.2c0-29.44-25.344-53.76-58.88-58.624-1.024-22.528-22.784-40.448-49.664-40.448-27.392 0-49.664 18.688-49.664 41.728 0 14.592 8.704 27.136 22.016 34.56 0 0.256-0.256 0.512-0.256 0.768-79.872-16.64-193.536-27.136-319.232-27.136-88.064 0-169.984 5.12-238.848 13.824-2.56-30.976-33.024-55.04-70.4-55.04-36.096 0-65.536 22.528-69.888 51.712-17.664 6.4-30.208 21.248-30.208 38.4 0 2.048 0.256 3.84 0.512 5.888-19.2 9.728-29.952 20.224-29.952 31.232 0 47.616 196.352 86.272 438.784 86.272 240.128 0 434.944-37.888 438.784-84.992 10.496-9.984 16.896-23.552 16.896-38.144" fill="#F0EFEF" p-id="781"></path><path d="M877.056 778.24c0 22.784-159.488 41.216-356.352 41.216-196.864 0-356.352-18.432-356.352-41.216s159.488-41.216 356.352-41.216c196.864-0.256 356.352 18.176 356.352 41.216" fill="#DFDFDF" p-id="782"></path><path d="M246.528 478.208h-22.272v-22.272h-14.848v22.272h-22.272v14.848h22.272v22.272h14.848v-22.272h22.272v-14.848zM286.72 186.88h-14.848v-15.104h-14.848V186.88h-14.848v14.848h14.848v14.848h14.848v-14.848h14.848V186.88z m641.792 319.488H906.24V483.84h-14.848v22.272h-22.272v14.848h22.272v22.272h14.848v-22.272h22.272v-14.592zM929.792 375.296c-12.032 0-23.04-7.168-27.648-18.432-4.608-11.264-2.048-24.064 6.4-32.512 8.448-8.448 21.504-11.008 32.512-6.4 11.264 4.608 18.432 15.616 18.432 27.648 0 7.936-3.072 15.616-8.704 20.992s-13.056 8.704-20.992 8.704z m0-44.8c-6.144 0-11.52 3.584-13.824 9.216s-1.024 12.032 3.328 16.384c4.352 4.352 10.752 5.632 16.384 3.328 5.632-2.304 9.216-7.68 9.216-13.824-0.256-8.448-6.912-14.848-15.104-15.104z" fill="#D7D8D8" p-id="783"></path><path d="M139.264 299.52c0 12.288 9.984 22.272 22.272 22.272s22.272-9.984 22.272-22.272c0-7.936-4.352-15.36-11.264-19.456s-15.36-4.096-22.272 0c-6.656 4.096-11.008 11.52-11.008 19.456z" fill="#FFFFFF" p-id="784"></path><path d="M161.536 336.896c-15.104 0.256-28.928-8.704-34.816-22.528s-2.816-29.952 7.68-40.96 26.624-14.08 40.704-8.448 23.296 19.456 23.296 34.56c0 20.224-16.384 36.864-36.864 37.376z m0-59.904c-9.216-0.256-17.408 5.12-20.992 13.312s-1.792 18.176 4.352 24.576 16.128 8.448 24.576 5.12 14.08-11.52 14.08-20.736c0-12.032-9.728-21.76-22.016-22.272zM785.92 225.536c-136.704 0.512-273.152-0.512-409.6 0.768-14.336 0.512-30.208-2.816-42.752 5.632-10.24 6.4-15.616 18.688-15.104 30.72V345.6h8.96v-79.616c0-8.448 1.536-17.408 8.192-23.296 5.888-6.144 14.848-7.424 23.04-7.168 136.704 0.256 273.152 0 409.856 0 11.776 0.256 23.808-1.024 35.328 1.024 7.424 1.536 12.032 8.448 17.408 13.312-9.216-3.328-18.944-8.448-29.184-5.632-15.104 3.072-26.112 17.92-25.344 33.28v454.144c0 10.496-0.768 23.296-11.264 28.928-13.312 9.472-33.792-1.024-34.56-17.152-2.048-24.064 0.512-48.128-1.28-72.192-130.816-0.256-261.888 0-392.704 0 0.512-12.544 0.768-25.088 0.768-37.632v-255.488h-8.96v293.632c-16.64-0.256-33.28-0.256-49.92 0-0.768 14.848-0.512 29.44-0.512 44.288 0.512 16.384-1.536 32.768 1.28 48.896 3.328 16.128 19.712 26.112 35.584 25.344 144.384 1.28 289.024 0.256 433.408 0.512 16.896 1.024 34.048-10.752 36.864-27.904 2.304-19.2-0.512-38.656 0.256-57.856V338.432c18.432 0 36.864 0.256 55.296-0.512 0.768-22.016 0-44.288 0.512-66.304 0.256-12.288-0.512-26.368-10.496-35.328-8.96-9.984-22.784-11.008-35.072-10.752z m-39.936 554.752c-11.52 1.536-23.04 0.512-34.56 0.768h-391.68c-11.52-0.256-25.088 1.792-34.304-6.656-7.424-6.144-8.704-16.384-8.704-25.344 0-23.04 0.256-45.824 0-68.864h433.92c0.256 20.992-0.768 41.984 0.512 62.976 0.512 13.568 11.008 26.112 24.32 28.928 10.24 2.816 19.968-2.048 29.44-5.12-5.632 5.376-10.752 12.288-18.944 13.312z m76.032-451.072h-46.592c0.512-18.176-0.512-36.608 0.256-54.784 0.512-10.496 8.448-19.968 18.688-21.76 13.056-2.816 26.368 8.448 26.624 21.504 1.792 18.176 0.512 36.608 1.024 55.04z" fill="#D7D8D8" p-id="785"></path><path d="M740.352 793.344h-2.304c-55.296-0.256-111.616 0-165.888 0-87.552 0-178.176 0.256-267.264-0.512-17.92 1.024-34.816-11.008-38.144-27.392-2.048-11.008-1.792-22.272-1.536-33.28 0-5.376 0.256-10.752 0-16.128v-5.376c0-12.8 0-26.112 0.512-39.168v-2.304h2.304c15.36-0.256 30.72-0.256 47.36-0.256 0.256-86.528 0.256-174.592 0-259.584v-33.792h14.08v258.048c0 11.264-0.256 23.04-0.768 34.048v1.024H720.896l0.256 2.304c0.768 11.776 0.768 23.808 0.512 35.328-0.256 12.032-0.256 24.576 0.768 36.864 0.256 6.656 4.608 12.8 11.52 16.128 6.656 3.072 13.824 2.816 19.2-1.024l0.256-0.256c8.96-4.608 9.984-15.872 9.984-26.624V535.04 276.992c-1.024-16.896 11.008-32.768 27.392-35.84 6.656-1.792 13.312-0.512 19.456 1.792-2.304-2.048-4.864-3.584-7.68-4.352-7.68-1.536-15.872-1.28-24.064-1.024-3.584 0-7.168 0.256-11.008 0H357.632c-9.984-0.256-16.64 2.048-21.248 6.4-5.12 4.352-7.424 11.52-7.424 21.504V347.648H314.88v-2.56-82.944c-0.512-13.568 5.888-26.112 16.384-32.768 9.984-6.656 21.76-6.4 33.28-6.144 3.84 0 7.168 0.256 10.752 0 81.152-0.768 163.584-0.512 243.2-0.512h166.656c13.056-0.256 27.648 1.024 36.864 11.52 10.496 9.472 11.264 24.064 11.008 37.12-0.256 10.24-0.256 20.736-0.256 30.72 0 11.776 0 23.808-0.256 35.584v2.304h-2.304c-13.568 0.512-27.392 0.512-40.448 0.512h-12.288v364.032c-0.256 7.936 0 15.872 0.256 23.552 0.512 11.264 0.768 23.04-0.512 34.56-2.304 17.408-18.688 30.72-36.864 30.72z m-83.2-5.376h81.152c16.384 1.024 31.744-10.496 34.304-25.856 1.28-11.008 1.024-22.528 0.512-33.536-0.256-7.936-0.512-15.872-0.256-24.064V335.36h17.408c12.544 0 25.344 0 37.888-0.512 0.256-11.008 0.256-22.272 0.256-33.024 0-9.984 0-20.48 0.256-30.72 0.256-11.776-0.512-25.088-9.472-33.28l-0.256-0.256c-7.936-8.96-20.48-9.984-33.024-9.984-55.552 0.256-112.128 0.256-166.656 0-79.616 0-162.048 0-242.944 0.512-3.584 0.256-7.424 0-11.008 0-10.496-0.256-21.504-0.512-30.464 5.376-9.216 5.632-14.336 16.64-14.08 28.416v80.384h3.84v-26.112-50.944c-0.256-11.264 2.816-19.968 8.96-25.344 6.912-7.168 17.408-7.936 24.576-7.936h420.608c8.192-0.256 16.64-0.256 25.088 1.28 6.656 1.536 11.008 5.888 15.104 10.496 1.28 1.28 2.304 2.56 3.584 3.584l-2.56 4.352c-1.792-0.512-3.328-1.28-5.12-1.792-7.424-2.816-15.104-5.888-22.528-3.84-13.824 2.816-24.32 16.384-23.296 30.72v454.4c0 9.216-0.256 24.576-12.544 30.976-6.912 4.864-15.872 5.376-24.064 1.28-8.448-4.096-13.824-11.776-14.336-20.48-1.024-12.288-1.024-25.088-0.768-37.12 0-10.752 0.256-21.504-0.512-32.512H323.84l0.256-6.144c0.256-11.008 0.768-22.528 0.768-33.792v-252.928h-3.84v293.632h-2.56c-16.896-0.256-32-0.256-47.36 0-0.512 12.032-0.512 24.576-0.512 36.352v5.376c0.256 5.376 0 11.008 0 16.384-0.256 10.752-0.512 21.76 1.28 32.256 3.328 15.616 19.2 23.808 33.024 23.04 89.344 0.768 179.968 0.768 267.52 0.512h84.736z m72.96-4.096H313.344c-9.984 0.256-21.248 0.256-29.696-7.424-6.656-5.376-9.728-14.336-9.472-27.392 0-27.648 0.256-48.896 0-68.864v-2.56h439.04v2.56c0.256 8.192 0 16.384 0 24.32-0.256 12.8-0.256 25.856 0.512 38.656 0.512 12.544 9.984 23.808 22.272 26.624 7.936 2.304 15.872-0.512 23.552-3.328l4.608-1.536 2.56 4.352-3.072 3.072c-4.608 4.608-9.728 9.728-17.152 10.752-5.632 0.512-11.008 0.768-16.384 0.768z m-15.616-5.376h7.936c7.68 0 15.616 0.256 23.296-0.768 3.328-0.512 6.4-2.304 8.96-4.352-6.4 2.048-12.8 3.072-19.712 1.28-14.336-3.072-25.6-16.384-26.112-31.232-0.768-13.056-0.768-26.112-0.512-38.912 0-7.168 0.256-14.336 0-21.504H279.552v66.304c-0.512 11.008 2.048 18.688 7.424 23.296 7.168 6.4 16.896 6.144 26.368 6.144h6.4c87.04-0.256 175.616 0 261.12 0h130.56c1.024-0.256 2.048-0.256 3.072-0.256z m58.368-446.72v-2.56c0.256-7.68 0-15.36 0-22.784 0-10.496-0.256-21.504 0.256-32.256 0.512-11.776 9.472-22.272 20.992-24.064 6.656-1.28 13.824 0.512 19.712 5.12 5.888 4.864 9.728 11.776 9.728 18.944 1.024 11.52 1.024 23.552 0.768 35.072 0 6.656-0.256 13.312 0 19.968v2.56H772.864z m25.6-77.056c-1.28 0-2.304 0-3.328 0.256-8.96 1.536-16.384 9.984-16.64 19.2-0.512 10.496-0.512 21.504-0.256 32 0 6.656 0.256 13.568 0 20.224h41.216v-17.408c0.256-11.52 0.256-23.296-0.768-34.816-0.256-5.632-3.072-11.264-7.936-15.104-3.84-2.816-7.936-4.352-12.288-4.352z" fill="#D7D8D8" p-id="786"></path><path d="M352.512 360.192l31.744 6.144 27.392-15.872 31.744 6.144 27.392-15.872h0.256l17.92 3.328-16.384-7.68-29.696 11.264h-0.256l-29.952-11.264-29.952 11.264h-0.512l-29.696-11.264-34.304 12.288v-7.68l34.048-12.544h0.256l29.952 11.52 30.208-11.52 29.952 11.52 30.208-11.52 46.592 21.504 3.072 1.28 1.28 0.768-3.328 5.632-3.84-0.768-44.032-8.448-27.392 15.872v0.256-0.256l-0.256 0.256v-0.256l-31.744-6.144-27.136 15.872v0.256l-0.256-0.256-0.256 0.256v-0.256l-31.488-6.144-28.672 15.36-7.168-5.376 34.304-17.664z" fill="#D7D8D8" p-id="787"></path><path d="M325.12 386.304l-11.776-8.704 36.864-19.2 0.256-0.768h2.816l0.256 0.256 30.208 5.888 25.856-15.104 1.024-1.536 1.024 0.512 0.768-0.256 0.768 1.024 29.952 5.888 17.408-10.24-15.616 5.888-0.512 1.28-1.536-0.768-1.536 0.512-0.768-1.28-28.16-10.496-28.16 10.496-0.256 1.024-1.536-0.512-1.28 0.512-0.768-1.28-28.16-10.496-36.864 13.056v-13.056l34.816-12.544 0.512-1.536 1.28 0.512 1.28-0.768 0.768 1.792 28.16 10.496 27.648-10.24v-2.048l2.56 1.024 1.536-0.512 0.512 1.28 28.16 10.496 28.416-10.496 0.512-1.024 0.768 0.256 0.512-0.256 1.28 1.024L527.36 350.72l-5.632 9.728-48.896-9.472-25.344 14.848-0.256 1.28-1.536-0.256-1.28 0.768-1.024-1.024-29.696-5.888-25.344 14.848-0.256 1.28-1.536-0.256-1.28 0.768-1.024-1.024-29.952-5.888-29.184 15.872z m-2.048-7.936l2.56 1.792 27.904-14.848 31.744 6.144 27.392-16.128 31.744 6.144 27.648-15.872 47.104 8.96 1.024-1.536-47.36-21.76-29.952 11.264-30.208-11.264-30.208 11.264-29.952-11.264h-0.256l-0.256-0.256-31.488 11.52v2.304l31.744-11.264 30.208 11.264 30.208-11.264 30.208 11.264 29.952-11.264 17.408 7.936-1.536 4.864-16.896-3.328h-0.256l-27.392 15.872-32-5.888-27.392 16.128-32-6.4-29.696 15.616z" fill="#D7D8D8" p-id="788"></path><path d="M745.984 780.288c-11.52 1.536-23.04 0.512-34.56 0.768h-391.68c-11.52-0.256-25.088 1.792-34.304-6.656-7.424-6.144-8.704-16.384-8.704-25.344 0-23.04 0.256-45.824 0-68.864h433.92c0.256 20.992-0.768 41.984 0.512 62.976 0.512 13.568 11.008 26.112 24.32 28.928 10.24 2.816 19.968-2.048 29.44-5.12-5.632 5.376-10.752 12.288-18.944 13.312z" fill="#F4F4F4" p-id="789"></path></svg>