<?xml version="1.0" standalone="no"?><!DOCTYPE svg PUBLIC "-//W3C//DTD SVG 1.1//EN" "http://www.w3.org/Graphics/SVG/1.1/DTD/svg11.dtd"><svg t="1542550568179" class="icon" style="" viewBox="0 0 1024 1024" version="1.1" xmlns="http://www.w3.org/2000/svg" p-id="2620" xmlns:xlink="http://www.w3.org/1999/xlink" width="144" height="144"><defs><style type="text/css"></style></defs><path d="M247.57248 341.03296a19.456 19.456 0 0 0-22.94784 13.04576c-0.28672-0.02048-0.60416-0.0512-0.91136-0.0512-5.23264 0-9.53344 3.93216-10.16832 8.99072-9.37984 0.43008-12.92288 9.95328-9.6256 17.78688h43.65312v-39.77216z" fill="#E4EEF2" p-id="2621"></path><path d="M283.6992 361.80992a13.80352 13.80352 0 0 0-21.69856-6.81984 19.46624 19.46624 0 0 0-37.36576-0.91136c-0.28672-0.02048-0.60416-0.0512-0.91136-0.0512-5.23264 0-9.53344 3.93216-10.16832 8.99072-9.37984 0.43008-12.92288 9.95328-9.6256 17.78688h93.17376c-0.01024 0 2.82624-19.22048-13.40416-18.9952M419.7376 359.97696a10.752 10.752 0 0 1 10.31168-7.65952c2.51904 0 4.8128 0.84992 6.67648 2.27328a15.19616 15.19616 0 0 1 14.71488-11.30496c6.79936 0 12.56448 4.4544 14.5408 10.60864 0.21504-0.02048 0.47104-0.02048 0.69632-0.02048 4.096 0 7.49568 3.072 7.97696 7.03488 7.34208 0.33792 10.12736 7.79264 7.53664 13.9264h-72.98048s-2.24256-15.07328 10.52672-14.85824" fill="#E4EEF2" p-id="2622"></path><path d="M448.37888 343.59296a15.31904 15.31904 0 0 0-11.6736 10.99776 10.78272 10.78272 0 0 0-6.656-2.27328 10.752 10.752 0 0 0-10.31168 7.65952c-12.73856-0.21504-10.51648 14.85824-10.51648 14.85824h39.15776v-31.24224zM612.84352 315.136a13.04576 13.04576 0 0 0-12.4928-9.24672c-3.06176 0-5.84704 1.03424-8.06912 2.7648a18.42176 18.42176 0 0 0-35.36896-0.84992c-0.27648-0.02048-0.57344-0.02048-0.84992-0.02048a9.728 9.728 0 0 0-9.65632 8.47872c-8.8576 0.4096-12.22656 9.43104-9.1136 16.85504h88.20736c0-0.01024 2.74432-18.21696-12.65664-17.98144" fill="#E4EEF2" p-id="2623"></path><path d="M577.30048 295.17824a18.4832 18.4832 0 0 0-20.38784 12.62592c-0.27648-0.02048-0.57344-0.02048-0.84992-0.02048a9.728 9.728 0 0 0-9.65632 8.47872c-8.8576 0.4096-12.22656 9.43104-9.1136 16.85504h40.00768v-37.9392zM704.29696 371.28192a10.84416 10.84416 0 0 1 17.00864-5.376 15.22688 15.22688 0 1 1 29.24544-0.69632c0.22528-0.03072 0.50176-0.03072 0.70656-0.03072 4.11648 0 7.49568 3.08224 7.99744 7.04512 7.31136 0.32768 10.11712 7.7824 7.51616 13.93664h-72.96c0.01024-0.01024-2.21184-15.08352 10.48576-14.87872M833.61792 306.8416a10.53696 10.53696 0 0 0-16.59904-5.21216 14.87872 14.87872 0 0 0-28.57984-0.69632c-0.21504-0.03072-0.44032-0.03072-0.6656-0.03072a7.84384 7.84384 0 0 0-7.79264 6.88128c-7.17824 0.3072-9.90208 7.5776-7.3728 13.59872h71.23968s2.19136-14.71488-10.22976-14.5408" fill="#E4EEF2" p-id="2624"></path><path d="M804.90496 290.74432a12.68736 12.68736 0 0 0-2.27328-0.2048c-6.64576 0-12.26752 4.36224-14.19264 10.38336-0.21504-0.03072-0.44032-0.03072-0.6656-0.03072a7.84384 7.84384 0 0 0-7.79264 6.85056c-7.17824 0.33792-9.90208 7.60832-7.3728 13.63968h32.28672v-30.63808zM862.50496 437.58592a19.99872 19.99872 0 0 1 31.44704-9.87136 28.16 28.16 0 1 1 54.07744-1.3312c0.43008-0.02048 0.89088-0.0512 1.31072-0.0512 7.5776 0 13.86496 5.67296 14.73536 13.0048 13.58848 0.62464 18.7392 14.40768 13.95712 25.78432H843.12064c0-0.01024-4.13696-27.86304 19.38432-27.53536" fill="#E4EEF2" p-id="2625"></path><path d="M917.504 407.00928a28.20096 28.20096 0 0 0-23.552 20.69504 19.99872 19.99872 0 0 0-31.44704 9.87136c-23.52128-0.32768-19.38432 27.52512-19.38432 27.52512H917.504v-58.09152zM74.76224 392.01792a10.77248 10.77248 0 0 1 16.97792-5.33504c1.7408-6.53312 7.68-11.34592 14.72512-11.34592 6.81984 0 12.56448 4.46464 14.5408 10.60864l0.70656-0.02048c4.096 0 7.48544 3.08224 7.9872 7.03488 7.33184 0.32768 10.09664 7.81312 7.5264 13.94688H64.256c0-0.01024-2.22208-15.06304 10.50624-14.88896" fill="#E4EEF2" p-id="2626"></path><path d="M104.47872 375.49056a15.29856 15.29856 0 0 0-12.7488 11.19232 10.77248 10.77248 0 0 0-16.97792 5.33504c-12.72832-0.17408-10.50624 14.87872-10.50624 14.87872h40.22272v-31.40608z" fill="#E4EEF2" p-id="2627"></path><path d="M727.73632 538.24512a15.22688 15.22688 0 0 0-12.7488 11.19232 10.82368 10.82368 0 0 0-17.02912 5.35552c-12.6976-0.19456-10.46528 14.85824-10.46528 14.85824h40.25344v-31.40608z" fill="#F1F0EF" p-id="2628"></path><path d="M245.23776 287.6416a33.60768 33.60768 0 1 1-67.23584 0 33.60768 33.60768 0 0 1 67.23584 0" fill="#E4EEF2" p-id="2629"></path><path d="M697.3952 589.824h9.09312v3.64544h-9.09312zM703.37536 596.19328h9.10336v3.62496h-9.10336zM697.3952 602.73664h9.09312v3.62496h-9.09312zM717.58848 606.37184h9.09312v3.62496h-9.09312zM710.30784 612.02432h9.08288v3.62496h-9.08288zM507.72992 553.4208h12.26752v4.90496h-12.26752zM515.84 562.00192h12.22656v4.89472h-12.22656zM507.72992 570.79808h12.26752v4.90496h-12.26752zM534.92736 575.71328h12.20608v4.89472h-12.20608zM525.13792 583.30112h12.2368v4.90496h-12.2368zM512.88064 611.20512h12.25728v4.89472h-12.25728z" fill="#FFFFFF" p-id="2630"></path><path d="M409.72288 560.16896h-29.91104v60.73344h-28.70272v-60.73344H242.04288V540.9792l103.4752-154.08128h34.29376v149.85216h29.91104v23.41888z m-58.61376-23.41888v-98.03776c0-6.95296 0.2048-14.9504 0.60416-24.02304h-0.60416c-1.41312 3.82976-4.38272 9.82016-8.9088 17.98144l-69.64224 104.07936h78.55104zM434.49344 508.50816c0-41.29792 6.85056-72.52992 20.54144-93.73696 13.69088-21.1968 33.536-31.7952 59.51488-31.7952 49.55136 0 74.32192 39.97696 74.32192 119.94112 0 39.48544-6.97344 69.66272-20.92032 90.56256s-33.50528 31.35488-58.68544 31.35488c-23.76704 0-42.17856-9.92256-55.21408-29.75744-13.03552-19.84512-19.5584-48.71168-19.5584-86.56896z m30.21824-1.36192c0 62.14656 15.75936 93.20448 47.27808 93.20448 31.01696 0 46.53056-31.56992 46.53056-94.72 0-65.35168-15.2064-98.03776-45.6192-98.03776-32.13312 0-48.18944 33.1776-48.18944 99.55328zM772.57728 560.16896h-29.91104v60.73344h-28.71296v-60.73344h-109.056V540.9792l103.4752-154.08128h34.29376v149.85216h29.91104v23.41888z m-58.61376-23.41888v-98.03776c0-6.95296 0.21504-14.9504 0.6144-24.02304h-0.6144c-1.40288 3.82976-4.38272 9.82016-8.89856 17.98144l-69.64224 104.07936h78.5408z" fill="#19AA97" p-id="2631"></path><path d="M306.04288 633.3952h6.51264v2.60096h-6.51264zM701.20448 632.71936h9.1136v3.62496h-9.1136z" fill="#FFFFFF" p-id="2632"></path><path d="M243.57888 619.1616c-1.536-2.11968-2.44736-8.64256-7.4752-9.33888-2.95936-0.39936-5.2736-4.52608-9.00096-9.10336-3.6352-4.48512-11.64288-3.21536-14.16192 1.42336l-0.31744 0.58368a1.71008 1.71008 0 0 0 0.6656-0.37888c1.01376-0.93184 5.57056-2.79552 8.09984-2.79552 2.51904 0 5.8368 3.19488 8.35584 7.04512 2.52928 3.84 7.168 4.49536 8.57088 5.70368 1.34144 1.21856 2.32448 5.12 4.78208 7.69024 2.48832 2.6112 5.53984 1.72032 5.53984 1.72032a6.31808 6.31808 0 0 1-5.05856-2.54976" fill="#C9C7C6" p-id="2633"></path><path d="M519.0144 618.55744h12.24704v4.89472h-12.24704zM528.80384 626.76992h12.25728v4.89472h-12.25728zM555.008 613.65248h12.21632v4.90496H555.008zM562.33984 621.0048h12.24704v4.90496h-12.24704z" fill="#FFFFFF" p-id="2634"></path><path d="M495.43168 482.62144l179.02592 259.35872H495.43168z" fill="#C8E6DC" p-id="2635"></path><path d="M545.00352 741.77536s15.98464-18.23744 50.20672-30.8224c34.23232-12.544 69.48864-37.5296 102.7072-55.88992 0 0 21.67808-10.27072 45.62944 0 23.98208 10.27072 38.81984 23.9616 68.47488 27.38176 29.65504 3.4304 47.91296 26.24512 88.9856 43.34592 41.07264 17.14176 77.59872 15.98464 77.59872 15.98464H545.00352z" fill="#8FCEC0" p-id="2636"></path><path d="M44.21632 741.77536s15.96416-18.23744 50.20672-30.8224c34.22208-12.544 69.4784-37.5296 102.67648-55.88992 0 0 21.67808-10.27072 45.64992 0 23.95136 10.27072 38.78912 23.9616 68.47488 27.38176 29.65504 3.4304 47.91296 26.24512 88.99584 43.34592 41.08288 17.14176 77.57824 15.98464 77.57824 15.98464H44.21632z" fill="#C8E6DC" p-id="2637"></path><path d="M311.21408 682.45504c-29.67552-3.42016-44.52352-17.11104-68.47488-27.38176-17.73568-7.60832-34.22208-3.95264-41.5744-1.54624 0 0-1.50528 15.53408 25.88672 20.89984 27.41248 5.38624 47.99488 12.12416 68.54656 21.72928 20.5824 9.60512 118.99904 47.58528 174.82752 45.50656h0.03072a213.7088 213.7088 0 0 1-70.25664-15.86176c-41.07264-17.1008-59.32032-39.92576-88.9856-43.34592" fill="#B2DCD0" p-id="2638"></path><path d="M277.51424 674.88768s68.33152-21.43232 93.66528-38.54336c25.2928-17.09056 57.15968-15.60576 106.60864-11.2128 49.46944 4.4032 43.32544 82.10432 43.32544 82.10432l-166.18496 11.33568-77.4144-43.68384z" fill="#A5D7CB" p-id="2639"></path><path d="M216.63744 742.35904l86.56896-137.5232v137.5232z" fill="#D8EDE9" p-id="2640"></path><path d="M303.2064 604.83584l94.9248 137.5232h-94.9248z" fill="#C8E6DC" p-id="2641"></path><path d="M310.35392 637.94176h6.46144v2.60096h-6.46144zM306.04288 642.62144h6.51264v2.60096h-6.51264zM320.44032 645.2224h6.51264v2.60096h-6.51264zM315.25888 649.216h6.5024v2.62144h-6.5024zM308.79744 664.04352h6.46144v2.59072h-6.46144zM312.0128 667.94496h6.5024v2.59072h-6.5024zM317.21472 672.29696h6.49216v2.59072h-6.49216zM331.1104 665.344h6.5024v2.60096h-6.5024zM335.01184 669.22496h6.5024v2.60096h-6.5024zM331.1104 705.59744h6.5024v2.60096h-6.5024zM335.01184 710.25664h6.5024v2.59072h-6.5024zM328.50944 714.67008h6.51264v2.63168h-6.51264zM325.26336 719.63648h6.5024v2.56h-6.5024zM339.17952 719.63648h6.49216v2.56h-6.49216z" fill="#FFFFFF" p-id="2642"></path><path d="M364.6976 717.30176h6.49216v2.58048h-6.49216zM369.152 720.91648h6.48192v2.60096h-6.48192z" fill="#C69B5D" p-id="2643"></path><path d="M332.19584 741.98016l163.23584-259.31776v259.31776z" fill="#D8EDE9" p-id="2644"></path><path d="M611.33824 694.70208h12.2368v4.88448h-12.2368zM619.79648 701.5424h12.2368v4.89472h-12.2368z" fill="#C69B5D" p-id="2645"></path><path d="M572.22144 742.35904l121.16992-192.52224v192.52224z" fill="#D8EDE9" p-id="2646"></path><path d="M693.39136 549.8368l132.90496 192.52224H693.39136z" fill="#C8E6DC" p-id="2647"></path><path d="M705.76128 638.1568h9.10336v3.64544h-9.10336zM713.02144 644.29056h9.08288v3.62496h-9.08288zM732.4672 634.54208h9.09312v3.62496h-9.09312zM737.92512 640h9.09312v3.62496h-9.09312zM732.4672 690.88256h9.09312v3.6352h-9.09312zM737.92512 697.43616h9.09312v3.6352h-9.09312zM728.84224 703.61088h9.09312v3.62496h-9.09312zM724.30592 710.54336h9.09312v3.62496h-9.09312zM743.75168 710.51264h9.09312v3.65568h-9.09312zM779.45856 707.23584h9.10336v3.64544h-9.10336zM785.72544 712.3456h9.07264v3.62496h-9.07264z" fill="#FFFFFF" p-id="2648"></path><path d="M246.59968 665.77408c0 1.6896-13.47584 3.072-30.1056 3.072-16.61952 0-30.07488-1.3824-30.07488-3.072 0-1.71008 13.44512-3.10272 30.07488-3.10272 16.61952 0 30.1056 1.39264 30.1056 3.10272" fill="#C9C7C6" p-id="2649"></path><path d="M277.504 607.83616c0.11264-0.67584-0.4096-1.25952-0.4096-1.25952-1.23904-0.63488-1.45408-0.37888-2.32448-1.69984-0.84992-1.30048-3.16416-1.76128-5.4272-1.44384-2.2528 0.33792-2.90816 0.4096-5.89824-0.90112-2.99008-1.34144-5.29408-0.58368-5.29408-0.58368-0.43008-0.67584-1.86368-0.55296-1.86368-0.55296-0.21504 0.34816 0.16384 2.94912 0.16384 2.94912s-1.62816 0.62464-3.0208 1.76128c-1.34144 1.13664-1.32096 2.77504-1.82272 3.9424-0.4608 1.16736 0.4096 2.95936 0.8192 3.23584 0.38912 0.24576 0.06144 1.65888-0.41984 3.95264-0.4608 2.31424-1.49504 3.34848-1.49504 3.34848s-1.024 1.08544-1.88416 1.08544a6.22592 6.22592 0 0 1-5.05856-2.52928c-1.536-2.11968-2.44736-8.64256-7.4752-9.33888-2.95936-0.39936-5.2736-4.52608-9.00096-9.10336-3.6352-4.48512-11.64288-3.21536-14.16192 1.42336-1.76128 3.23584-6.01088 9.23648-10.78272 12.46208-4.7616 3.2256-4.00384 6.656-4.28032 8.88832-0.26624 2.2528-3.15392 9.24672-3.2256 10.16832-0.0512 0.89088 2.16064 1.19808 2.16064 1.19808-0.54272 0.67584 0.79872 6.03136-0.80896 9.40032-1.61792 3.34848-0.31744 7.1168-0.31744 7.1168s0.18432 7.63904 0.03072 9.19552c-0.16384 1.536 1.18784 2.8672 1.90464 3.4304 0.68608 0.55296 0.98304 2.74432 0.98304 2.74432h6.2464s-1.92512-2.31424-3.46112-3.44064c-1.54624-1.10592-2.24256-4.29056-2.3552-8.192-0.1536-3.9424-0.1536-7.71072 1.59744-9.95328 1.73056-2.2528 3.84-7.14752 3.84-7.14752s0.21504 5.376-0.62464 7.0656c-0.84992 1.6896-0.49152 3.072 0.3584 4.89472 0.82944 1.8432 4.4032 8.83712 4.25984 10.17856-0.12288 1.3312 0.58368 2.38592 1.24928 3.28704 0.70656 0.91136 1.26976 2.79552 1.26976 2.79552h5.75488s-1.05472-1.96608-2.85696-3.15392c-1.86368-1.19808-2.56-4.48512-3.79904-7.15776-1.28-2.6624-2.79552-6.08256-2.52928-8.3968 0.27648-2.32448 1.18784-2.95936 2.80576-6.8096 1.59744-3.85024 2.4576-8.68352 2.4576-8.68352 1.60768-0.21504 5.60128 1.76128 9.04192 2.6624 3.4304 0.91136 6.17472 0.21504 6.58432 0.68608 0.41984 0.48128 0.98304 5.9904 0.07168 7.30112-0.91136 1.34144-1.67936 7.09632-1.8944 9.3184-0.2048 2.24256-0.9216 5.38624-1.42336 6.66624a5.4784 5.4784 0 0 0 0 3.34848c0.23552 0.44032 0.28672 2.87744 0.28672 2.87744h5.81632c-0.768-2.2528-3.21536-1.77152-3.4304-4.7616-0.2048-3.0208 0.48128-5.81632 1.59744-8.41728s1.97632-4.5568 2.60096-7.00416c0.63488-2.44736 2.51904-3.64544 2.51904-0.62464s1.41312 8.12032 1.67936 9.23648c0.28672 1.11616 1.28 5.02784 0.83968 5.9392-0.41984 0.9216-0.75776 2.94912 0 3.18464 0.79872 0.19456 1.55648 1.95584 1.55648 1.95584 0.14336 0.74752 0.9216 2.31424 0.9216 2.31424h5.24288s-0.21504-1.67936-1.97632-2.26304c-1.73056-0.5632-2.07872-0.91136-3.21536-5.19168-1.09568-4.25984-0.62464-5.43744-0.4096-7.05536 0.21504-1.59744-0.34816-2.37568-0.49152-3.6352-0.13312-1.25952 0-6.10304 0-6.10304 0.2048-2.11968 0-7.26016 0-7.26016 1.9968-1.15712 4.096-2.93888 4.096-2.93888 19.3536 1.76128 19.01568-10.15808 20.18304-11.56096 2.22208-2.73408 1.7408-6.00064 1.59744-8.0384 0.52224 0.67584 3.93216 1.32096 5.15072 0 1.28-1.39264 4.37248-2.70336 5.12-3.06176 0.72704-0.34816 2.48832 0.41984 2.42688-0.12288-0.04096-0.53248-0.73728-0.67584-0.83968-0.90112-0.06144-0.18432 0.89088-0.07168 1.04448-0.72704" fill="#E4EEF2" p-id="2650"></path><path d="M201.37984 663.30624c-1.54624-1.10592-2.24256-4.29056-2.3552-8.192-0.1536-3.9424-0.1536-7.71072 1.59744-9.95328 1.56672-2.03776 3.4304-6.20544 3.7888-7.0144 0 0 0.45056-1.97632 0-1.1264-0.4608 0.86016-2.78528 5.71392-3.8912 6.88128-1.09568 1.14688-1.792 2.83648-2.34496 4.608-0.5632 1.76128 0.29696 8.83712 0.55296 10.97728 0.24576 2.10944 1.09568 3.75808 2.2528 4.5568a9.33888 9.33888 0 0 1 2.05824 2.68288h1.80224c-0.01024 0.01024-1.92512-2.28352-3.46112-3.42016M213.87264 663.10144c-1.86368-1.19808-2.56-4.48512-3.79904-7.15776-1.28-2.6624-2.79552-6.08256-2.52928-8.3968 0.27648-2.32448 1.18784-2.95936 2.80576-6.8096 1.59744-3.85024 2.4576-8.67328 2.4576-8.67328-0.80896 3.01056-4.6592 12.15488-5.76512 13.52704-1.14688 1.37216-0.29696 4.29056 0.74752 6.78912 1.06496 2.4576 2.68288 6.42048 2.97984 7.61856s1.09568 2.92864 2.41664 3.86048c1.3312 0.90112 1.93536 2.38592 1.93536 2.38592h1.59744a9.23648 9.23648 0 0 0-2.84672-3.14368M227.87072 660.16256c-0.2048-3.0208 0.48128-5.81632 1.59744-8.41728s1.97632-4.5568 2.60096-7.00416a4.36224 4.36224 0 0 1 1.16736-2.16064c-0.4608 0.33792-1.56672 1.21856-1.73056 2.03776-0.18432 1.03424-2.28352 6.02112-3.08224 7.89504a22.528 22.528 0 0 0-1.37216 6.21568c-0.1536 1.76128 0.11264 3.2768 0.75776 3.82976 0.65536 0.5632 2.00704 2.34496 2.00704 2.34496h1.47456c-0.74752-2.23232-3.20512-1.75104-3.42016-4.74112M242.85184 664.49408c-1.73056-0.5632-2.07872-0.91136-3.21536-5.19168-1.09568-4.25984-0.62464-5.43744-0.4096-7.05536 0.21504-1.59744-0.34816-2.37568-0.49152-3.6352-0.13312-1.25952 0-6.10304 0-6.10304 0.21504-2.11968 0-7.26016 0-7.26016 1.9968-1.15712 4.096-2.93888 4.096-2.93888 19.3536 1.76128 19.01568-10.15808 20.18304-11.56096 2.22208-2.73408 1.7408-6.00064 1.59744-8.0384 0.52224 0.67584 3.93216 1.32096 5.15072 0 1.28-1.39264 4.37248-2.70336 5.12-3.06176 0.72704-0.34816 2.48832 0.41984 2.42688-0.12288-0.02048-0.31744-0.23552-0.48128-0.44032-0.60416-0.02048 0-0.99328 0.14336-2.2016 0.14336-1.2288 0-3.23584 1.06496-4.21888 2.06848a4.43392 4.43392 0 0 1-4.44416 1.25952c-1.72032-0.55296-1.95584 0-1.95584 0 0 1.10592-0.50176 5.71392-1.19808 7.03488-0.7168 1.3312-1.46432 2.29376-1.46432 2.29376-0.83968 3.88096-5.38624 8.2944-9.22624 9.55392-3.87072 1.25952-9.6256 0.79872-9.6256 0.79872-0.50176 0.50176-4.32128 2.7648-4.7616 3.16416-0.39936 0.39936 0.14336 8.77568 0.02048 10.52672-0.12288 1.71008 0.4608 4.17792 0.57344 5.4272 0.09216 1.28 0 4.25984 0 5.376 0 1.1264 0.84992 3.7376 1.49504 5.80608a4.68992 4.68992 0 0 0 2.57024 3.15392 5.38624 5.38624 0 0 1 1.49504 1.21856h0.90112a2.84672 2.84672 0 0 0-1.97632-2.2528" fill="#C9C7C6" p-id="2651"></path><path d="M44.21632 741.77536s13.7728 4.97664 53.93408 18.3808c40.17152 13.42464 93.75744 8.77568 102.99392 4.13696 9.25696-4.6592 95.01696-19.3024 102.07232-21.94432-0.4096-4.7616-198.92224-14.16192-198.92224-14.16192l-60.07808 13.58848z" fill="#C8E6DC" p-id="2652"></path><path d="M228.096 726.4768l-23.01952 37.35552s31.20128-6.42048 31.97952-7.28064c0.768-0.88064 65.3824-13.49632 66.1504-14.20288 0.74752-0.68608-71.07584-22.38464-75.1104-15.872z" fill="#D8EDE9" p-id="2653"></path><path d="M302.14144 741.72416s48.5376 17.79712 80.11776 21.504c15.26784 2.03776 7.87456-0.1024 17.19296 0a887.3984 887.3984 0 0 1 15.48288 0.256l-17.22368-21.76-60.09856-4.3008s-31.71328-3.67616-34.43712 3.4816" fill="#C8E6DC" p-id="2654"></path><path d="M396.9536 740.70016l17.98144 22.784s42.47552 2.11968 51.59936 2.6624l28.89728 1.55648V736.4608s-77.58848-12.544-78.75584-12.94336c-1.14688-0.44032-20.87936 15.50336-19.72224 17.18272z" fill="#D8EDE9" p-id="2655"></path><path d="M495.43168 738.37568v29.31712s20.41856 1.28 24.32 1.28c3.86048 0.04096 23.00928 0.67584 27.5456 0.8192 3.86048 0.31744 7.91552 0.08192 13.0048-0.06144 5.85728-8.6016 12.58496-28.3648 12.58496-28.3648l-70.15424-8.0384-7.30112 5.04832z" fill="#C8E6DC" p-id="2656"></path><path d="M575.9488 736.4608l-20.55168 33.25952s15.88224 0.27648 19.18976-0.73728c2.99008 0.33792 29.3888-4.70016 32.6656-5.3248l30.5152-5.85728c5.4272-1.04448 29.24544-4.90496 30.73024-5.56032 4.03456-0.67584 24.8832-3.77856 24.8832-3.77856v-12.02176l-65.35168-11.22304-52.08064 11.24352z" fill="#D8EDE9" p-id="2657"></path><path d="M693.39136 724.43904v24.02304s18.82112-1.9968 20.91008-2.14016c2.10944-0.14336 18.87232-1.15712 29.45024 0.96256 11.71456 3.92192 23.83872 8.09984 31.86688 10.11712 7.99744 1.97632 26.04032 5.56032 28.34432 5.89824 2.31424 0.33792 26.3168 3.71712 30.0032 2.62144 4.25984 0.1024 4.25984 0.1024 6.38976 0.06144-3.87072-5.75488-14.42816-24.17664-14.42816-24.17664l-49.75616-9.23648c-0.01024-0.01024-82.78016-12.16512-82.78016-8.13056z" fill="#C8E6DC" p-id="2658"></path><path d="M555.008 689.55136h12.21632v4.9152H555.008zM562.33984 698.368h12.24704v4.90496h-12.24704zM550.10304 706.7136h12.2368v4.88448h-12.2368zM543.97952 716.00128h12.2368v4.9152h-12.2368zM522.67008 652.6464h12.22656v4.89472h-12.22656z" fill="#FFFFFF" p-id="2659"></path></svg>